<svg width="20" height="20" viewBox="0 0 20 20" fill="none" xmlns="http://www.w3.org/2000/svg">
<path fill-rule="evenodd" clip-rule="evenodd" d="M0 10.015C0 4.74712 4.21 0 10.02 0C15.7 0 20 4.65699 20 9.98498C20 16.1642 14.96 20 10 20C8.36 20 6.54 19.5593 5.08 18.698C4.57 18.3876 4.14 18.1572 3.59 18.3375L1.57 18.9384C1.06 19.0986 0.6 18.698 0.75 18.1572L1.42 15.9139C1.53 15.6034 1.51 15.2729 1.35 15.0125C0.49 13.4301 0 11.6975 0 10.015ZM8.69995 10.015C8.69995 10.7261 9.26995 11.2969 9.97995 11.307C10.69 11.307 11.26 10.7261 11.26 10.025C11.26 9.31397 10.69 8.74311 9.97995 8.74311C9.27995 8.7331 8.69995 9.31397 8.69995 10.015ZM13.3101 10.025C13.3101 10.7261 13.8801 11.307 14.5901 11.307C15.3001 11.307 15.8701 10.7261 15.8701 10.025C15.8701 9.31397 15.3001 8.74311 14.5901 8.74311C13.8801 8.74311 13.3101 9.31397 13.3101 10.025ZM5.36997 11.307C4.66997 11.307 4.08997 10.7261 4.08997 10.025C4.08997 9.31397 4.65997 8.74311 5.36997 8.74311C6.07997 8.74311 6.64997 9.31397 6.64997 10.025C6.64997 10.7261 6.07997 11.2969 5.36997 11.307Z" fill="#4489FE"/>
</svg>
