<svg width="30" height="30" viewBox="0 0 30 30" fill="none" xmlns="http://www.w3.org/2000/svg">
<path d="M1.25 16.2241H28.75C29.44 16.2241 30 15.6641 30 14.9741C30 14.2841 29.44 13.7241 28.75 13.7241H1.25C0.559998 13.7241 0 14.2841 0 14.9741C0 15.6641 0.559998 16.2241 1.25 16.2241Z" fill="black"/>
<path d="M1.25 6.64062H28.75C29.44 6.64062 30 6.08063 30 5.39062C30 4.70062 29.44 4.14062 28.75 4.14062H1.25C0.559998 4.14062 0 4.70062 0 5.39062C0 6.08063 0.559998 6.64062 1.25 6.64062Z" fill="black"/>
<path d="M1.25 25.8071H28.75C29.44 25.8071 30 25.2471 30 24.5571C30 23.8671 29.44 23.3071 28.75 23.3071H1.25C0.559998 23.3071 0 23.8671 0 24.5571C0 25.2471 0.559998 25.8071 1.25 25.8071Z" fill="black"/>
</svg>
