<svg width="16" height="4" viewBox="0 0 16 4" fill="none" xmlns="http://www.w3.org/2000/svg">
<path d="M4.33335 2.00004C4.33335 0.991707 3.50835 0.166707 2.50002 0.166707C1.49169 0.166707 0.666687 0.991707 0.666687 2.00004C0.666687 3.00837 1.49169 3.83337 2.50002 3.83337C3.50835 3.83337 4.33335 3.00837 4.33335 2.00004ZM6.16669 2.00004C6.16669 3.00837 6.99169 3.83337 8.00002 3.83337C9.00835 3.83337 9.83335 3.00837 9.83335 2.00004C9.83335 0.991707 9.00835 0.166707 8.00002 0.166707C6.99169 0.166707 6.16669 0.991707 6.16669 2.00004ZM11.6667 2.00004C11.6667 3.00837 12.4917 3.83337 13.5 3.83337C14.5084 3.83337 15.3334 3.00837 15.3334 2.00004C15.3334 0.991706 14.5084 0.166706 13.5 0.166706C12.4917 0.166707 11.6667 0.991707 11.6667 2.00004Z" fill="#969696"/>
</svg>
